<svg width="118" height="24" viewBox="0 0 118 24" fill="none" xmlns="http://www.w3.org/2000/svg">
<path fill-rule="evenodd" clip-rule="evenodd" d="M79.2251 23.4902H81.5434V11.8778C81.5434 11.3882 81.1425 10.9912 80.6477 10.9912H78.3293V22.6036C78.3293 23.0931 78.7302 23.4902 79.2251 23.4902Z" fill="#008CD5"/>
<path fill-rule="evenodd" clip-rule="evenodd" d="M79.9366 9.73178C80.9272 9.73178 81.7307 8.93732 81.7307 7.95698C81.7307 6.97665 80.9272 6.18262 79.9366 6.18262C78.9457 6.18262 78.1426 6.97665 78.1426 7.95698C78.1426 8.93732 78.9457 9.73178 79.9366 9.73178Z" fill="#008CD5"/>
<path fill-rule="evenodd" clip-rule="evenodd" d="M72.7809 17.9995C72.7809 19.5773 71.4761 20.6275 69.8812 20.6275C68.2867 20.6275 66.9819 19.5773 66.9819 17.9995V15.748C66.9819 14.1707 68.2867 13.1201 69.8812 13.1201C71.4761 13.1201 72.7809 14.1707 72.7809 15.748V17.9995ZM69.8819 10.2566H69.8815C68.8282 10.2566 67.8342 10.4896 66.9657 10.9114V7.05603C66.9657 6.56694 66.5644 6.16992 66.0695 6.16992H63.7512V17.7819C63.7512 21.1173 66.5098 23.4892 69.8815 23.4892H69.8819C73.2535 23.4892 76.0122 21.1173 76.0122 17.7819V15.9776C76.0122 12.6421 73.2535 10.2566 69.8819 10.2566Z" fill="#008CD5"/>
<path fill-rule="evenodd" clip-rule="evenodd" d="M12.3704 9.65186C12.344 9.6343 12.3063 9.62231 12.2804 9.66428C12.2094 10.502 11.3444 12.2935 10.2486 13.9389C6.53064 19.519 8.64939 22.2086 9.84081 23.6532C10.5322 24.4922 9.84081 23.6532 11.5695 22.7962C11.705 22.7294 14.9429 20.9328 15.2935 16.8397C15.6334 12.876 13.2267 10.3778 12.3704 9.65186Z" fill="#008CD5"/>
<path fill-rule="evenodd" clip-rule="evenodd" d="M7.40191 0.0121329C8.6929 0.97705 10.3895 3.94075 10.3895 7.3867C10.3895 9.10354 9.10487 10.7585 7.76484 12.4848L7.76484 12.4848C6.2013 14.4991 4.5624 16.6104 4.80089 19.0304C4.97894 20.8376 5.74234 22.1824 6.21453 23.0141C6.71362 23.8933 6.88735 24.1993 5.70051 23.8725C1.57211 22.7367 -2.48182 16.5905 1.87733 10.9847C2.27726 10.4703 2.74654 9.9841 3.23889 9.47394C5.07188 7.57465 7.22464 5.34403 7.30927 0.0990739C7.30927 0.0982694 7.30975 0.0977483 7.31021 0.0972444C7.31073 0.0966752 7.31123 0.096128 7.311 0.0952194C7.30321 -0.0431154 7.39672 0.0091349 7.40191 0.0121329ZM30.1716 13.0733V6.18359H32.49C32.9848 6.18359 33.3861 6.58061 33.3861 7.07014V23.4883H31.0678C30.573 23.4883 30.1716 23.0917 30.1716 22.6017V15.852H23.3028V23.4883H20.9841C20.4892 23.4883 20.0879 23.0917 20.0879 22.6017V6.18359H22.4067C22.9015 6.18359 23.3028 6.58061 23.3028 7.07014V13.0733H30.1716ZM43.6546 18.4655V10.2656H45.982C46.4772 10.2656 46.8781 10.6626 46.8781 11.1517V18.609C46.8781 21.2939 44.6581 23.4905 41.9441 23.4905H40.6245C37.9109 23.4905 35.6904 21.2939 35.6904 18.609V10.2656H35.6909H38.0183C38.5135 10.2656 38.9144 10.6626 38.9144 11.1517V18.3173C38.9144 20.0309 40.7981 21.3303 42.6181 20.29C43.2701 19.9169 43.6546 19.2107 43.6546 18.4655ZM58.1899 18.0005C58.1899 19.5783 56.885 20.6284 55.2906 20.6284C53.6957 20.6284 52.3908 19.5783 52.3908 18.0005V15.749C52.3908 14.1717 53.6957 13.1211 55.2906 13.1211C56.885 13.1211 58.1899 14.1717 58.1899 15.749V18.0005ZM55.2908 10.2578C51.9188 10.2578 49.1602 12.6433 49.1602 15.9788V17.7831C49.1602 21.1186 51.9188 23.4904 55.2908 23.4904C58.6625 23.4904 61.4211 21.1186 61.4211 17.7831V15.9788C61.4211 12.6433 58.6625 10.2578 55.2908 10.2578ZM110.302 13.2978L117.326 6.32798H113.805C113.51 6.32798 113.227 6.44704 113.023 6.65775L106.752 13.1197V13.0404V7.07661C106.752 6.58537 106.355 6.1875 105.865 6.1875H103.572V22.5915C103.572 23.0828 103.969 23.4802 104.458 23.4802H106.752V16.7194L108.195 15.4195L113.656 22.8879C113.933 23.2712 114.38 23.4986 114.857 23.4986H118L110.302 13.2978ZM97.9685 13.0733V6.18359H100.287C100.782 6.18359 101.183 6.58061 101.183 7.07014V23.4883H98.8647C98.3698 23.4883 97.9685 23.0917 97.9685 22.6017V15.852H91.0997V23.4883H88.7809C88.2861 23.4883 87.8848 23.0917 87.8848 22.6017V6.18359H90.2035C90.6984 6.18359 91.0997 6.58061 91.0997 7.07014V13.0733H97.9685Z" fill="white"/>
</svg>
