<svg width="1287" height="178" viewBox="0 0 1287 178" fill="none" xmlns="http://www.w3.org/2000/svg">
<g clip-path="url(#clip0_43_4115)">
<path d="M7.17739 92.6236C7.17739 92.6236 6.22867 89.1497 8.2086 87.6429C9.19857 87.3081 10.271 87.2244 14.8496 89.5682C30.6066 97.7298 57.0881 108.152 79.4861 98.818C101.925 89.4845 86.8283 121.67 86.8283 121.67C86.8283 121.67 82.0848 141.384 54.902 135.482C32.2153 130.585 7.91986 107.607 7.17739 92.6236Z" fill="white" fill-opacity="0.5"/>
<path d="M12.1675 0C12.1675 0 26.0683 12.0122 77.5465 55.164C118.754 84.5457 90.7048 129.246 74.7828 134.729C75.0303 113.383 71.9367 112.002 31.8843 79.5232C-7.09553 47.965 -6.02307 30.5955 12.1675 0Z" fill="white"/>
<path d="M8.29111 87.6011C-1.5673 90.5309 -2.96975 119.034 21.4494 140.505C46.116 162.227 46.116 162.227 55.8507 177.295C64.4304 169.761 75.2788 142.514 52.0558 124.182C15.6334 98.8599 8.29111 87.6011 8.29111 87.6011Z" fill="white"/>
</g>
<path d="M279.225 74.4307C276.695 71.5514 273.641 69.3701 270.151 67.8868C266.224 66.229 261.949 65.4437 257.674 65.531C252.788 65.4437 247.901 66.4035 243.364 68.323C239.525 70.0681 236.035 72.6857 233.243 75.914C230.538 79.2296 228.531 83.0687 227.397 87.1696C226.088 91.5322 225.478 96.1566 225.478 100.694C225.478 105.318 226.088 109.942 227.484 114.392C228.706 118.493 230.887 122.245 233.854 125.386C236.908 128.615 240.747 131.058 244.848 132.628C250.432 134.548 256.365 135.158 262.211 134.46C273.205 133.064 277.916 128.876 281.232 124.514C286.991 116.748 285.333 115.439 285.333 115.439H272.768C271.372 115.439 268.406 121.373 259.157 121.373C252.788 121.373 250.345 120.413 247.116 117.446C244.237 114.829 242.579 110.641 242.23 104.969H285.158C286.38 104.969 286.642 104.184 286.729 103.05C286.991 98.1634 287.252 91.5322 284.897 84.2903C283.588 80.6256 281.668 77.31 279.225 74.4307ZM242.317 92.5792C243.015 88.3911 244.411 84.9883 246.68 82.5452C249.123 79.8404 252.613 78.5316 257.237 78.5316C259.332 78.4443 261.426 78.8806 263.258 79.7531C264.828 80.5384 266.224 81.6727 267.446 83.0687C268.58 84.552 269.453 86.2098 269.976 88.0421C270.413 89.5254 270.674 91.0087 270.762 92.5792H242.317Z" fill="#030041"/>
<path d="M476.59 43.6311V80.4517H440.293V48.3427C440.293 45.7252 438.199 43.6311 435.581 43.6311H423.279V131.407C423.279 134.025 425.373 136.119 427.99 136.119H440.293V95.2846H476.59V131.32C476.59 133.937 478.684 136.032 481.302 136.032H493.604V48.3427C493.604 45.7252 491.51 43.6311 488.893 43.6311H476.59Z" fill="#030041"/>
<path d="M547.872 65.3569V109.158C547.872 113.171 545.865 116.923 542.375 118.93C532.777 124.514 522.743 117.534 522.743 108.372V70.1558C522.743 67.5382 520.649 65.4442 518.032 65.4442H505.729V110.03C505.729 124.427 517.421 136.119 531.817 136.119H538.798C553.107 136.119 564.886 124.427 564.886 110.03V70.1558C564.886 67.5382 562.792 65.4442 560.175 65.4442H547.872V65.3569Z" fill="#030041"/>
<path d="M609.388 65.3569C591.501 65.3569 576.93 78.0958 576.93 95.8953V105.58C576.93 123.467 591.501 136.119 609.388 136.119C627.275 136.119 641.846 123.467 641.846 105.58V95.8953C641.759 78.0958 627.275 65.3569 609.388 65.3569ZM624.745 106.715C624.745 115.091 617.852 120.762 609.388 120.762C601.012 120.762 594.032 115.178 594.032 106.715V94.761C594.032 86.3848 600.925 80.7134 609.388 80.7134C617.764 80.7134 624.745 86.2975 624.745 94.761V106.715Z" fill="#030041"/>
<path d="M609.388 65.3569C591.501 65.3569 576.93 78.0958 576.93 95.8953V105.58C576.93 123.467 591.501 136.119 609.388 136.119C627.275 136.119 641.846 123.467 641.846 105.58V95.8953C641.759 78.0958 627.275 65.3569 609.388 65.3569ZM624.745 106.715C624.745 115.091 617.852 120.762 609.388 120.762C601.012 120.762 594.032 115.178 594.032 106.715V94.761C594.032 86.3848 600.925 80.7134 609.388 80.7134C617.764 80.7134 624.745 86.2975 624.745 94.761V106.715Z" fill="#030041"/>
<path d="M214.308 65.5313V63.35V62.7393C214.308 57.5914 214.308 52.4435 214.308 47.3828C214.308 45.027 212.825 43.1947 210.556 42.5839C210.12 42.4967 209.683 42.4094 209.334 42.4094C205.321 42.4094 201.394 42.4094 197.468 42.4094C197.381 42.4094 197.206 42.4094 197.119 42.4094V63.2628V63.9608V69.8067V102.265C189.441 91.0963 181.85 79.928 174.259 68.7597L170.245 62.9138C165.795 56.2826 161.258 49.6514 156.721 43.0202C156.459 42.5839 156.11 42.4094 155.674 42.4094C151.05 42.4094 146.513 42.4094 141.976 42.4094H141.365V63.2628V74.1693C141.365 92.9286 141.365 111.601 141.365 130.36C141.365 132.454 141.888 134.199 143.633 135.508C143.633 135.508 144.157 135.857 145.117 136.119H158.553V135.508V127.655V74.6056C158.641 74.8674 158.728 74.9546 158.815 75.1291C167.977 88.915 177.051 102.701 186.213 116.487C189.615 121.635 192.931 126.695 196.334 131.843C197.206 133.152 197.992 134.548 199.388 135.508C199.388 135.508 199.998 135.944 200.871 136.119H214.221V135.508V126.608L214.308 65.5313Z" fill="#030041"/>
<path d="M376.599 65.7054C374.418 74.6052 372.149 83.4177 369.968 92.2302C367.787 101.043 365.518 109.855 363.598 118.755C363.511 118.668 363.511 118.58 363.511 118.493C363.337 117.621 363.249 116.748 363.075 115.876C362.028 110.902 361.068 105.929 359.847 100.955C357.229 90.0489 354.437 79.1423 351.732 68.2357C351.47 67.2759 351.209 66.4034 351.034 65.4436C350.86 65.4436 350.772 65.4436 350.598 65.4436C345.973 65.4436 341.349 65.4436 336.725 65.3564C336.376 65.3564 336.201 65.4436 336.114 65.7927C333.322 76.4375 330.53 86.995 327.825 97.6398C326.254 103.922 324.684 110.204 323.113 116.399C322.939 117.184 322.764 117.882 322.59 118.668C322.59 118.755 322.503 118.842 322.415 118.929C322.328 118.842 322.328 118.755 322.241 118.755C322.241 118.668 322.241 118.668 322.241 118.58C321.194 113.433 320.234 108.285 319.1 103.224C316.657 92.3174 314.214 81.4109 311.77 70.5043C311.072 67.5377 308.542 65.3564 305.488 65.2691C301.475 65.1819 297.548 65.1819 293.535 65.1819C293.447 65.1819 293.447 65.1819 293.273 65.1819C299.73 88.3038 306.099 111.338 312.556 134.46L312.818 135.333C312.905 135.682 313.079 135.682 313.341 135.682C318.576 135.682 323.724 135.769 328.959 135.769C329.046 135.769 329.134 135.769 329.221 135.769C329.308 135.682 329.483 135.682 329.483 135.595V135.507L330.006 133.937C334.456 118.057 339.43 102.351 342.92 86.2097C343.007 86.8205 343.181 87.5185 343.269 88.1293C344.403 93.1027 345.45 98.0761 346.584 102.962C349.115 113.433 351.819 123.903 354.437 134.373L354.699 135.595C354.699 135.944 354.961 136.031 355.31 136.031C360.457 136.031 365.605 136.118 370.753 136.118C370.84 136.118 370.928 136.118 370.928 136.118C371.015 136.031 371.189 135.944 371.189 135.856V135.769L371.626 134.548C378.606 111.6 385.586 88.7401 392.566 65.7927C387.244 65.7927 381.922 65.7054 376.599 65.7054Z" fill="#030041"/>
<path d="M279.224 74.4307C276.693 71.5514 273.639 69.3701 270.149 67.8868C266.223 66.229 261.948 65.4437 257.672 65.531C252.786 65.4437 247.9 66.4035 243.363 68.323C239.524 70.0681 236.034 72.6857 233.242 75.914C230.537 79.2296 228.53 83.0687 227.396 87.1696C226.087 91.5322 225.476 96.1566 225.476 100.694C225.476 105.318 226.087 109.942 227.483 114.392C228.704 118.493 230.886 122.245 233.852 125.386C236.906 128.615 240.745 131.058 244.846 132.628C250.43 134.548 256.363 135.158 262.209 134.46C273.203 133.064 277.915 128.876 281.23 124.514C286.989 116.748 285.331 115.439 285.331 115.439H272.767C271.371 115.439 268.404 121.373 259.156 121.373C252.786 121.373 250.343 120.413 247.115 117.446C244.235 114.829 242.578 110.641 242.229 104.969H285.157C286.378 104.969 286.64 104.184 286.727 103.05C286.989 98.1634 287.251 91.5322 284.895 84.2903C283.586 80.6256 281.667 77.31 279.224 74.4307ZM242.316 92.5792C243.014 88.3911 244.41 84.9883 246.678 82.5452C249.122 79.8404 252.612 78.5316 257.236 78.5316C259.33 78.4443 261.424 78.8806 263.256 79.7531C264.827 80.5384 266.223 81.6727 267.445 83.0687C268.579 84.552 269.451 86.2098 269.975 88.0421C270.411 89.5254 270.673 91.0087 270.76 92.5792H242.316Z" fill="white"/>
<path d="M476.588 43.6311V80.4517H440.291V48.3427C440.291 45.7252 438.197 43.6311 435.579 43.6311H423.277V131.407C423.277 134.025 425.371 136.119 427.988 136.119H440.291V95.2846H476.588V131.32C476.588 133.937 478.682 136.032 481.3 136.032H493.602V48.3427C493.602 45.7252 491.508 43.6311 488.891 43.6311H476.588Z" fill="white"/>
<path d="M547.873 65.3569V109.158C547.873 113.171 545.867 116.923 542.377 118.93C532.779 124.514 522.745 117.534 522.745 108.372V70.1558C522.745 67.5382 520.651 65.4442 518.033 65.4442H505.73V110.03C505.73 124.427 517.422 136.119 531.819 136.119H538.799C553.109 136.119 564.888 124.427 564.888 110.03V70.1558C564.888 67.5382 562.794 65.4442 560.176 65.4442H547.873V65.3569Z" fill="white"/>
<path d="M609.388 65.3569C591.501 65.3569 576.93 78.0958 576.93 95.8953V105.58C576.93 123.467 591.501 136.119 609.388 136.119C627.275 136.119 641.846 123.467 641.846 105.58V95.8953C641.759 78.0958 627.275 65.3569 609.388 65.3569ZM624.745 106.715C624.745 115.091 617.852 120.762 609.388 120.762C601.012 120.762 594.032 115.178 594.032 106.715V94.761C594.032 86.3848 600.925 80.7134 609.388 80.7134C617.764 80.7134 624.745 86.2975 624.745 94.761V106.715Z" fill="white"/>
<path d="M609.388 65.3569C591.501 65.3569 576.93 78.0958 576.93 95.8953V105.58C576.93 123.467 591.501 136.119 609.388 136.119C627.275 136.119 641.846 123.467 641.846 105.58V95.8953C641.759 78.0958 627.275 65.3569 609.388 65.3569ZM624.745 106.715C624.745 115.091 617.852 120.762 609.388 120.762C601.012 120.762 594.032 115.178 594.032 106.715V94.761C594.032 86.3848 600.925 80.7134 609.388 80.7134C617.764 80.7134 624.745 86.2975 624.745 94.761V106.715Z" fill="white"/>
<path d="M214.308 65.5313V63.35V62.7393C214.308 57.5914 214.308 52.4435 214.308 47.3828C214.308 45.027 212.825 43.1947 210.556 42.5839C210.12 42.4967 209.683 42.4094 209.334 42.4094C205.321 42.4094 201.394 42.4094 197.468 42.4094C197.381 42.4094 197.206 42.4094 197.119 42.4094V63.2628V63.9608V69.8067V102.265C189.441 91.0963 181.85 79.928 174.259 68.7597L170.245 62.9138C165.795 56.2826 161.258 49.6514 156.721 43.0202C156.459 42.5839 156.11 42.4094 155.674 42.4094C151.05 42.4094 146.513 42.4094 141.976 42.4094H141.365V63.2628V74.1693C141.365 92.9286 141.365 111.601 141.365 130.36C141.365 132.454 141.888 134.199 143.633 135.508C143.633 135.508 144.157 135.857 145.117 136.119H158.553V135.508V127.655V74.6056C158.641 74.8674 158.728 74.9546 158.815 75.1291C167.977 88.915 177.051 102.701 186.213 116.487C189.615 121.635 192.931 126.695 196.334 131.843C197.206 133.152 197.992 134.548 199.388 135.508C199.388 135.508 199.998 135.944 200.871 136.119H214.221V135.508V126.608L214.308 65.5313Z" fill="white"/>
<path d="M376.597 65.7054C374.416 74.6052 372.147 83.4177 369.966 92.2302C367.785 101.043 365.516 109.855 363.597 118.755C363.509 118.668 363.509 118.58 363.509 118.493C363.335 117.621 363.248 116.748 363.073 115.876C362.026 110.902 361.066 105.929 359.845 100.955C357.227 90.0489 354.435 79.1423 351.73 68.2357C351.468 67.2759 351.207 66.4034 351.032 65.4436C350.858 65.4436 350.77 65.4436 350.596 65.4436C345.972 65.4436 341.347 65.4436 336.723 65.3564C336.374 65.3564 336.199 65.4436 336.112 65.7927C333.32 76.4375 330.528 86.995 327.823 97.6398C326.252 103.922 324.682 110.204 323.111 116.399C322.937 117.184 322.762 117.882 322.588 118.668C322.588 118.755 322.501 118.842 322.413 118.929C322.326 118.842 322.326 118.755 322.239 118.755C322.239 118.668 322.239 118.668 322.239 118.58C321.192 113.433 320.232 108.285 319.098 103.224C316.655 92.3174 314.212 81.4109 311.769 70.5043C311.071 67.5377 308.54 65.3564 305.486 65.2691C301.473 65.1819 297.546 65.1819 293.533 65.1819C293.446 65.1819 293.446 65.1819 293.271 65.1819C299.728 88.3038 306.097 111.338 312.554 134.46L312.816 135.333C312.903 135.682 313.077 135.682 313.339 135.682C318.574 135.682 323.722 135.769 328.957 135.769C329.045 135.769 329.132 135.769 329.219 135.769C329.306 135.682 329.481 135.682 329.481 135.595V135.507L330.004 133.937C334.454 118.057 339.428 102.351 342.918 86.2098C343.005 86.8205 343.179 87.5185 343.267 88.1293C344.401 93.1027 345.448 98.0761 346.582 102.962C349.113 113.433 351.817 123.903 354.435 134.373L354.697 135.595C354.697 135.944 354.959 136.031 355.308 136.031C360.455 136.031 365.603 136.118 370.751 136.118C370.838 136.118 370.926 136.118 370.926 136.118C371.013 136.031 371.188 135.944 371.188 135.856V135.769L371.624 134.548C378.604 111.6 385.584 88.7401 392.564 65.7927C387.242 65.7927 381.92 65.7054 376.597 65.7054Z" fill="white"/>
<path d="M950.283 128.004C948.189 128.702 946.183 129.575 944.089 130.011C932.222 132.541 921.228 130.884 911.892 122.682C905.785 117.272 902.818 110.379 902.818 102.177C902.818 98.2511 902.556 94.2375 902.993 90.3984C904.127 79.8408 909.886 72.1626 919.396 67.8872C932.135 62.1286 944.699 62.9138 956.129 71.2028C963.459 76.5252 967.123 84.029 967.123 93.1032C967.21 105.057 967.123 117.01 967.123 128.877C967.123 134.199 966.6 139.434 964.593 144.495C961.365 152.784 955.257 158.194 946.968 160.898C937.981 163.778 928.994 163.603 920.094 160.288C913.55 157.845 909.537 152.784 906.483 146.764C906.395 146.502 906.308 146.24 906.221 145.978C905.697 144.408 905.959 144.059 907.617 144.059C911.194 144.059 914.684 144.059 918.262 144.059C918.96 144.059 919.745 144.32 920.269 144.757C925.766 149.905 932.309 150.603 939.202 149.119C944.874 147.898 948.102 143.884 949.498 138.3C950.545 134.984 950.371 131.494 950.283 128.004ZM950.283 97.8149C950.283 95.9825 950.283 94.1502 950.283 92.3179C950.283 87.4318 948.102 83.6799 943.914 81.1496C939.29 78.4448 934.404 78.0958 929.343 79.6663C922.973 81.6731 919.658 86.2975 919.658 92.9287C919.658 96.3316 919.658 99.7344 919.658 103.137C919.658 108.111 921.752 111.863 926.027 114.393C930.739 117.185 935.887 117.534 941.035 115.702C947.142 113.608 950.196 109.07 950.196 102.614C950.283 101.043 950.283 99.4727 950.283 97.8149Z" fill="white"/>
<path d="M847.674 135.333C847.238 135.333 846.889 135.42 846.627 135.42C842.788 135.42 838.949 135.42 835.197 135.42C831.969 135.42 830.224 133.675 830.224 130.447C830.224 108.896 830.224 87.3443 830.224 65.793C830.224 65.3567 830.224 64.8332 830.224 64.2224C832.143 64.2224 833.975 64.2224 835.808 64.2224C838.164 64.2224 840.519 64.2224 842.875 64.2224C845.929 64.2224 847.761 66.0547 847.849 69.1086C847.849 69.2831 847.849 69.3703 847.849 69.7193C850.815 66.4037 854.742 65.8802 858.668 65.4439C864.514 64.8332 870.273 65.2694 875.682 67.538C882.662 70.4173 887.112 75.6525 889.381 82.8072C890.69 86.9081 891.213 91.0962 891.213 95.4588C891.213 108.023 891.213 120.675 891.213 133.239C891.213 133.85 891.213 134.548 891.213 135.159C890.777 135.159 890.428 135.246 890.079 135.246C886.327 135.246 882.488 135.246 878.736 135.246C875.508 135.246 873.937 133.588 873.937 130.447C873.937 119.017 873.937 107.587 873.937 96.1568C873.937 92.754 873.414 89.4384 871.581 86.4718C868.527 81.5857 863.903 80.1024 858.581 80.7131C853.52 81.3239 850.379 84.5523 848.896 89.1766C848.11 91.5325 847.761 94.15 847.674 96.5931C847.587 108.808 847.587 120.937 847.587 133.152C847.674 133.937 847.674 134.548 847.674 135.333Z" fill="white"/>
<path d="M725.694 43.6311V80.4517H689.397V48.3427C689.397 45.7252 687.303 43.6311 684.685 43.6311H672.383V131.407C672.383 134.025 674.477 136.119 677.094 136.119H689.397V95.2846H725.694V131.32C725.694 133.937 727.788 136.032 730.406 136.032H742.708V48.3427C742.708 45.7252 740.614 43.6311 737.997 43.6311H725.694Z" fill="white"/>
<path d="M786.597 65.3569C768.71 65.3569 754.139 78.0958 754.139 95.8953V105.58C754.139 123.467 768.71 136.119 786.597 136.119C804.483 136.119 819.055 123.467 819.055 105.58V95.8953C818.967 78.0958 804.396 65.3569 786.597 65.3569ZM801.866 106.715C801.866 115.091 794.973 120.762 786.509 120.762C778.133 120.762 771.153 115.178 771.153 106.715V94.761C771.153 86.3848 778.046 80.7134 786.509 80.7134C794.886 80.7134 801.866 86.2975 801.866 94.761V106.715Z" fill="white"/>
<path d="M1269.54 128.004C1267.45 128.702 1265.44 129.575 1263.35 130.011C1251.48 132.541 1240.49 130.884 1231.15 122.682C1225.04 117.272 1222.07 110.379 1222.07 102.177C1222.07 98.2511 1221.81 94.2375 1222.25 90.3984C1223.38 79.8408 1229.14 72.1626 1238.65 67.8872C1251.39 62.1286 1263.96 62.9138 1275.39 71.2028C1282.72 76.5252 1286.38 84.029 1286.38 93.1032C1286.47 105.057 1286.38 117.01 1286.38 128.877C1286.38 134.199 1285.86 139.434 1283.85 144.495C1280.62 152.784 1274.51 158.194 1266.22 160.898C1257.24 163.778 1248.25 163.603 1239.35 160.288C1232.81 157.845 1228.79 152.784 1225.74 146.764C1225.65 146.502 1225.57 146.24 1225.48 145.978C1224.95 144.408 1225.22 144.059 1226.87 144.059C1230.45 144.059 1233.94 144.059 1237.52 144.059C1238.22 144.059 1239 144.32 1239.53 144.757C1245.02 149.905 1251.57 150.603 1258.46 149.119C1264.13 147.898 1267.36 143.884 1268.76 138.3C1269.8 134.984 1269.63 131.494 1269.54 128.004ZM1269.45 97.8149C1269.45 95.9825 1269.45 94.1502 1269.45 92.3179C1269.45 87.4318 1267.27 83.6799 1263.08 81.1496C1258.46 78.4448 1253.57 78.0958 1248.51 79.6663C1242.14 81.6731 1238.83 86.2975 1238.83 92.9287C1238.83 96.3316 1238.83 99.7344 1238.83 103.137C1238.83 108.111 1240.92 111.863 1245.2 114.393C1249.91 117.185 1255.06 117.534 1260.2 115.702C1266.31 113.608 1269.37 109.07 1269.37 102.614C1269.45 101.043 1269.45 99.4727 1269.45 97.8149Z" fill="white"/>
<path d="M1166.93 135.333C1166.5 135.333 1166.15 135.42 1165.89 135.42C1162.05 135.42 1158.21 135.42 1154.46 135.42C1151.23 135.42 1149.48 133.675 1149.48 130.447C1149.48 108.896 1149.48 87.3443 1149.48 65.793C1149.48 65.3567 1149.48 64.8332 1149.48 64.2224C1151.4 64.2224 1153.23 64.2224 1155.07 64.2224C1157.42 64.2224 1159.78 64.2224 1162.13 64.2224C1165.19 64.2224 1167.02 66.0547 1167.11 69.1086C1167.11 69.2831 1167.11 69.3703 1167.11 69.7193C1170.07 66.4037 1174 65.8802 1177.93 65.4439C1183.77 64.8332 1189.53 65.2694 1194.94 67.538C1201.92 70.4173 1206.37 75.6525 1208.64 82.8072C1209.95 86.9081 1210.47 91.0962 1210.47 95.4588C1210.47 108.023 1210.47 120.675 1210.47 133.239C1210.47 133.85 1210.47 134.548 1210.47 135.159C1210.04 135.159 1209.69 135.246 1209.34 135.246C1205.59 135.246 1201.75 135.246 1197.99 135.246C1194.77 135.246 1193.2 133.588 1193.2 130.447C1193.2 119.017 1193.2 107.587 1193.2 96.1568C1193.2 92.754 1192.67 89.4384 1190.84 86.4718C1187.79 81.5857 1183.16 80.1024 1177.84 80.7131C1172.78 81.3239 1169.64 84.5523 1168.15 89.1766C1167.37 91.5325 1167.02 94.15 1166.93 96.5931C1166.85 108.808 1166.85 120.937 1166.85 133.152C1166.93 133.937 1166.93 134.548 1166.93 135.333Z" fill="white"/>
<path d="M1106.47 63.9609C1088.32 63.9609 1073.4 76.9616 1073.4 95.1101V104.97C1073.4 123.118 1088.23 136.032 1106.47 136.032C1124.61 136.032 1139.53 123.118 1139.53 104.97V95.1101C1139.45 76.9616 1124.61 63.9609 1106.47 63.9609ZM1122.08 106.191C1122.08 114.742 1115.1 120.501 1106.47 120.501C1097.92 120.501 1090.85 114.742 1090.85 106.191V93.9758C1090.85 85.4251 1097.83 79.6664 1106.47 79.6664C1115.02 79.6664 1122.08 85.4251 1122.08 93.9758V106.191Z" fill="white"/>
<path d="M1013.98 136.206C1009.27 136.206 1004.64 136.206 1000.02 136.206C999.494 136.206 998.97 135.77 998.534 135.421C997.4 134.374 997.051 132.978 997.051 131.494C997.051 121.111 997.051 110.728 997.051 100.345C997.051 81.8477 997.051 63.4374 997.051 44.9399C997.051 44.5036 997.051 44.1546 997.051 43.7184C997.4 43.7184 997.749 43.6311 998.011 43.6311C1001.59 43.6311 1005.17 43.6311 1008.66 43.6311C1011.97 43.6311 1013.89 45.5507 1013.89 48.9535C1013.89 59.1621 1013.89 69.4579 1013.89 79.6664C1013.89 80.0154 1013.89 80.3644 1013.89 80.8879C1014.24 80.5389 1014.5 80.3644 1014.68 80.1027C1018.25 76.3508 1021.83 72.5989 1025.41 68.8471C1032.65 61.2561 1039.89 53.7524 1047.13 46.1614C1048.36 44.9399 1049.84 44.3291 1051.5 44.3291C1057.52 44.3291 1063.54 44.3291 1069.64 44.3291C1069.73 44.3291 1069.82 44.3291 1070.08 44.4164C1057.6 56.9807 1045.21 69.3706 1032.82 81.8477C1046.26 99.909 1059.79 117.97 1073.31 136.119C1072.79 136.119 1072.44 136.119 1072.18 136.119C1066.68 136.119 1061.09 136.032 1055.6 136.119C1053.42 136.206 1051.93 135.159 1050.8 133.588C1044.17 124.514 1037.62 115.353 1030.99 106.191C1028.03 102.178 1025.15 98.0767 1022.18 94.0631C1022 93.8013 1021.74 93.5396 1021.57 93.1905C1019.47 95.1101 1017.38 97.0297 1015.29 98.862C1014.24 99.7345 1013.89 100.607 1013.89 102.003C1013.98 112.997 1013.89 123.903 1013.89 134.897C1013.98 135.334 1013.98 135.77 1013.98 136.206Z" fill="white"/>
<defs>
<clipPath id="clip0_43_4115">
<rect width="98.9553" height="177.295" fill="white"/>
</clipPath>
</defs>
</svg>
